<?xml version="1.0" encoding="UTF-8" standalone="no"?>
<!DOCTYPE svg PUBLIC "-//W3C//DTD SVG 1.1//EN"
 "http://www.w3.org/Graphics/SVG/1.1/DTD/svg11.dtd">
<!-- Generated by graphviz version 14.0.5 (0)
 -->
<!-- Pages: 1 -->
<svg width="856pt" height="725pt"
 viewBox="0.00 0.00 856.00 725.00" xmlns="http://www.w3.org/2000/svg" xmlns:xlink="http://www.w3.org/1999/xlink">
<g id="graph0" class="graph" transform="scale(1 1) rotate(0) translate(4 721.02)">
<polygon fill="none" stroke="none" points="-4,4 -4,-721.02 851.67,-721.02 851.67,4 -4,4"/>
<!-- moon -->
<g id="node1" class="node">
<title>moon</title>
<polygon fill="none" stroke="#ffb000" points="54,-307.87 0,-307.87 0,-271.87 54,-271.87 54,-307.87"/>
<text xml:space="preserve" text-anchor="middle" x="27" y="-284.44" font-family="Terminess Nerd Font Mono" font-size="14.00" fill="#ffb000">moon</text>
</g>
<!-- earth -->
<g id="node2" class="node">
<title>earth</title>
<polygon fill="none" stroke="green" points="180,-307.87 126,-307.87 126,-271.87 180,-271.87 180,-307.87"/>
<text xml:space="preserve" text-anchor="middle" x="153" y="-284.44" font-family="Terminess Nerd Font Mono" font-size="14.00" fill="green">earth</text>
</g>
<!-- moon&#45;&gt;earth -->
<g id="edge1" class="edge">
<title>moon&#45;&gt;earth</title>
<path fill="none" stroke="cyan" d="M54.34,-289.87C71.92,-289.87 95.04,-289.87 114.47,-289.87"/>
<polygon fill="cyan" stroke="cyan" points="114.2,-293.37 124.2,-289.87 114.2,-286.37 114.2,-293.37"/>
<text xml:space="preserve" text-anchor="middle" x="104.65" y="-292.32" font-family="Terminess Nerd Font Mono" font-size="14.00" fill="cyan">orbits</text>
</g>
<!-- sun -->
<g id="node3" class="node">
<title>sun</title>
<ellipse fill="none" stroke="#ffb000" cx="699.62" cy="-289.87" rx="24.12" ry="24.12"/>
<text xml:space="preserve" text-anchor="middle" x="699.62" y="-284.44" font-family="Terminess Nerd Font Mono" font-size="14.00" fill="#ffb000">sun</text>
</g>
<!-- earth&#45;&gt;sun -->
<g id="edge2" class="edge">
<title>earth&#45;&gt;sun</title>
<path fill="none" stroke="cyan" d="M180.48,-289.87C271.29,-289.87 561.73,-289.87 663.76,-289.87"/>
<polygon fill="cyan" stroke="cyan" points="663.73,-293.37 673.73,-289.87 663.73,-286.37 663.73,-293.37"/>
<text xml:space="preserve" text-anchor="middle" x="401.87" y="-292.32" font-family="Terminess Nerd Font Mono" font-size="14.00" fill="cyan">orbits</text>
</g>
<!-- mercury -->
<g id="node4" class="node">
<title>mercury</title>
<polygon fill="none" stroke="#ffb000" points="731.24,-36 667.99,-36 667.99,0 731.24,0 731.24,-36"/>
<text xml:space="preserve" text-anchor="middle" x="699.62" y="-12.57" font-family="Terminess Nerd Font Mono" font-size="14.00" fill="#ffb000">mercury</text>
</g>
<!-- mercury&#45;&gt;sun -->
<g id="edge3" class="edge">
<title>mercury&#45;&gt;sun</title>
<path fill="none" stroke="cyan" d="M699.62,-36.26C699.62,-80.81 699.62,-195.72 699.62,-254.34"/>
<polygon fill="cyan" stroke="cyan" points="696.12,-254.09 699.62,-264.09 703.12,-254.09 696.12,-254.09"/>
<text xml:space="preserve" text-anchor="middle" x="679.37" y="-147.75" font-family="Terminess Nerd Font Mono" font-size="14.00" fill="cyan">orbits</text>
</g>
<!-- mars -->
<g id="node5" class="node">
<title>mars</title>
<polygon fill="none" stroke="red" points="726.62,-579.74 672.62,-579.74 672.62,-543.74 726.62,-543.74 726.62,-579.74"/>
<text xml:space="preserve" text-anchor="middle" x="699.62" y="-556.31" font-family="Terminess Nerd Font Mono" font-size="14.00" fill="red">mars</text>
</g>
<!-- mars&#45;&gt;sun -->
<g id="edge4" class="edge">
<title>mars&#45;&gt;sun</title>
<path fill="none" stroke="cyan" d="M699.62,-543.48C699.62,-498.92 699.62,-384.02 699.62,-325.4"/>
<polygon fill="cyan" stroke="cyan" points="703.12,-325.64 699.62,-315.64 696.12,-325.64 703.12,-325.64"/>
<text xml:space="preserve" text-anchor="middle" x="679.37" y="-436.89" font-family="Terminess Nerd Font Mono" font-size="14.00" fill="cyan">orbits</text>
</g>
<!-- phobos -->
<g id="node6" class="node">
<title>phobos</title>
<polygon fill="none" stroke="#ffb000" points="847.67,-512.52 791.17,-512.52 791.17,-476.52 847.67,-476.52 847.67,-512.52"/>
<text xml:space="preserve" text-anchor="middle" x="819.42" y="-489.09" font-family="Terminess Nerd Font Mono" font-size="14.00" fill="#ffb000">phobos</text>
</g>
<!-- phobos&#45;&gt;mars -->
<g id="edge5" class="edge">
<title>phobos&#45;&gt;mars</title>
<path fill="none" stroke="cyan" d="M790.73,-510.62C774.52,-519.71 754.09,-531.17 736.69,-540.94"/>
<polygon fill="cyan" stroke="cyan" points="735.17,-537.77 728.17,-545.72 738.6,-543.88 735.17,-537.77"/>
<text xml:space="preserve" text-anchor="middle" x="743.46" y="-528.23" font-family="Terminess Nerd Font Mono" font-size="14.00" fill="cyan">orbits</text>
</g>
<!-- deimos -->
<g id="node7" class="node">
<title>deimos</title>
<polygon fill="none" stroke="#ffb000" points="732.93,-717.02 676.43,-717.02 676.43,-681.02 732.93,-681.02 732.93,-717.02"/>
<text xml:space="preserve" text-anchor="middle" x="704.68" y="-693.59" font-family="Terminess Nerd Font Mono" font-size="14.00" fill="#ffb000">deimos</text>
</g>
<!-- deimos&#45;&gt;mars -->
<g id="edge6" class="edge">
<title>deimos&#45;&gt;mars</title>
<path fill="none" stroke="cyan" d="M704.01,-680.79C703.16,-657.92 701.71,-618.4 700.7,-591.21"/>
<polygon fill="cyan" stroke="cyan" points="704.21,-591.42 700.35,-581.55 697.22,-591.68 704.21,-591.42"/>
<text xml:space="preserve" text-anchor="middle" x="682.11" y="-638.45" font-family="Terminess Nerd Font Mono" font-size="14.00" fill="cyan">orbits</text>
</g>
<!-- curiosity -->
<g id="node8" class="node">
<title>curiosity</title>
<polygon fill="none" stroke="#ffb000" points="618.19,-512.52 541.44,-512.52 541.44,-476.52 618.19,-476.52 618.19,-512.52"/>
<text xml:space="preserve" text-anchor="middle" x="579.81" y="-489.09" font-family="Terminess Nerd Font Mono" font-size="14.00" fill="#ffb000">curiosity</text>
</g>
<!-- curiosity&#45;&gt;mars -->
<g id="edge7" class="edge">
<title>curiosity&#45;&gt;mars</title>
<path fill="none" stroke="cyan" d="M612.55,-512.88C627.9,-521.49 646.26,-531.8 662.15,-540.72"/>
<polygon fill="cyan" stroke="cyan" points="660.44,-543.76 670.87,-545.61 663.86,-537.66 660.44,-543.76"/>
<text xml:space="preserve" text-anchor="middle" x="606.98" y="-529.25" font-family="Terminess Nerd Font Mono" font-size="14.00" fill="cyan">landed_on</text>
</g>
</g>
</svg>
